<svg xmlns="http://www.w3.org/2000/svg" xmlns:xlink="http://www.w3.org/1999/xlink" width="242" height="103" viewBox="0 0 242 103"><defs><path id="rbswa" d="M202.757 185.24c0-4.64 1.806-8.697 5.42-12.171 3.613-3.474 7.936-5.212 12.969-5.212 1.773 0 3.48.239 5.12.716 1.64.478 2.993 1.044 4.057 1.699a26.628 26.628 0 0 1 2.827 1.981c.82.666 1.408 1.243 1.762 1.732l.532.699-6.783 7.16a12.31 12.31 0 0 0-.782-1.016c-.343-.41-1.108-.971-2.294-1.682-1.186-.71-2.433-1.065-3.741-1.065-2.04 0-3.741.682-5.104 2.048-1.364 1.365-2.046 3.069-2.046 5.111 0 2.043.682 3.747 2.046 5.112 1.363 1.365 3.064 2.048 5.104 2.048a7.461 7.461 0 0 0 3.674-.949c1.142-.633 1.957-1.27 2.444-1.915l.699-.866 6.783 7.16-.565.75c-.244.321-.81.865-1.696 1.631a18.534 18.534 0 0 1-2.86 2.032c-1.02.588-2.36 1.132-4.023 1.631-1.663.5-3.381.75-5.155.75-5.032 0-9.355-1.738-12.968-5.212-3.614-3.474-5.42-7.532-5.42-12.172zm-16.333-16.716h9.88v33.453h-11.576v-15.694l-11.908 15.694h-9.88v-33.453h11.576v15.727zm-60.272 0h28.606v33.443h-11.576v-23.184h-6.486c0 4.642-.294 8.572-.881 11.792-.588 3.22-1.458 5.718-2.612 7.495-1.153 1.777-2.456 3.042-3.908 3.797-1.453.755-3.177 1.133-5.172 1.133-.91 0-1.819-.094-2.728-.283-.91-.189-1.597-.35-2.062-.483l-.666-.267v-10.226a6.576 6.576 0 0 0 2.03.333c1.263 0 2.25-.339 2.96-1.016s1.303-2.198 1.78-4.563c.476-2.365.715-5.735.715-10.11zm-9.88 16.716c0 4.64-1.801 8.698-5.405 12.172-3.603 3.474-7.928 5.212-12.972 5.212-5.045 0-9.375-1.738-12.99-5.212-3.614-3.474-5.422-7.532-5.422-12.172 0-4.64 1.808-8.697 5.422-12.171 3.615-3.474 7.945-5.212 12.99-5.212 5.044 0 9.369 1.738 12.972 5.212 3.604 3.474 5.405 7.532 5.405 12.171zm-24.847.01c0 2 .648 3.695 1.946 5.084 1.297 1.389 2.805 2.083 4.524 2.083 1.718 0 3.226-.694 4.523-2.083 1.298-1.389 1.946-3.083 1.946-5.084 0-2-.648-3.694-1.946-5.083-1.297-1.389-2.805-2.083-4.523-2.083-1.72 0-3.227.694-4.524 2.083-1.298 1.389-1.946 3.083-1.946 5.083zm-39.85-6.464v23.191H40v-33.453h33.03v33.453H61.455v-23.19zM282 130.388c0 4.641-1.802 8.7-5.405 12.175-3.604 3.476-7.928 5.213-12.973 5.213-5.045 0-9.375-1.737-12.99-5.213-3.614-3.475-5.421-7.534-5.421-12.175 0-4.641 1.807-8.7 5.422-12.175 3.614-3.475 7.944-5.213 12.99-5.213 5.044 0 9.368 1.738 12.972 5.213 3.603 3.476 5.405 7.534 5.405 12.175zm-24.848 0c0 1.999.65 3.692 1.946 5.08 1.298 1.388 2.806 2.082 4.524 2.082 1.719 0 3.227-.694 4.524-2.082 1.297-1.388 1.946-3.081 1.946-5.08 0-1.998-.649-3.692-1.946-5.08s-2.805-2.082-4.524-2.082c-1.718 0-3.226.694-4.524 2.082-1.297 1.388-1.946 3.082-1.946 5.08zm-46.668-5.796v-10.926h31.367v10.926h-9.879v22.518h-11.609v-22.518zm-35.392 5.796c0-4.641 1.808-8.7 5.422-12.175 3.615-3.475 7.939-5.213 12.973-5.213 1.774 0 3.481.239 5.122.716 1.641.478 2.994 1.044 4.058 1.699a26.636 26.636 0 0 1 2.828 1.982c.82.666 1.408 1.244 1.763 1.732l.532.7-6.786 7.161a12.31 12.31 0 0 0-.781-1.016c-.344-.41-1.11-.971-2.296-1.682-1.186-.71-2.433-1.066-3.742-1.066-2.04 0-3.742.683-5.106 2.049-1.363 1.366-2.045 3.07-2.045 5.113 0 2.043.682 3.748 2.045 5.113 1.364 1.366 3.066 2.049 5.106 2.049a7.463 7.463 0 0 0 3.676-.95c1.142-.632 1.957-1.27 2.445-1.915l.698-.866 6.786 7.162c-.133.178-.322.427-.566.75-.243.321-.809.865-1.696 1.632a18.54 18.54 0 0 1-2.86 2.032c-1.02.588-2.362 1.132-4.025 1.632-1.664.5-3.382.75-5.156.75-5.034 0-9.358-1.738-12.973-5.214-3.614-3.475-5.422-7.534-5.422-12.175zm-4.756 0c0 4.641-1.802 8.7-5.406 12.175-3.603 3.476-7.927 5.213-12.972 5.213s-9.375-1.737-12.99-5.213c-3.614-3.475-5.421-7.534-5.421-12.175 0-4.641 1.807-8.7 5.421-12.175 3.615-3.475 7.945-5.213 12.99-5.213s9.369 1.738 12.972 5.213c3.604 3.476 5.406 7.534 5.406 12.175zm-24.848 0c0 1.999.649 3.692 1.946 5.08s2.805 2.082 4.524 2.082c1.718 0 3.226-.694 4.523-2.082 1.298-1.388 1.946-3.081 1.946-5.08 0-1.998-.648-3.692-1.946-5.08-1.297-1.388-2.805-2.082-4.523-2.082-1.719 0-3.227.694-4.524 2.082-1.297 1.388-1.946 3.082-1.946 5.08zm-41.546 12.625v18.42H92.367v-47.767h11.575v4.097c.089-.133.21-.3.366-.5.155-.199.527-.571 1.114-1.115a13.033 13.033 0 0 1 1.913-1.466c.688-.433 1.575-.821 2.661-1.166a11.503 11.503 0 0 1 3.493-.516c4.169 0 7.761 1.649 10.777 4.947 3.016 3.297 4.524 7.45 4.524 12.458 0 5.007-1.508 9.155-4.524 12.441-3.016 3.287-6.608 4.93-10.777 4.93-1.907 0-3.66-.394-5.256-1.182-1.596-.789-2.716-1.571-3.36-2.349zm0-12.625c0 1.999.649 3.692 1.946 5.08 1.298 1.388 2.805 2.082 4.524 2.082 1.719 0 3.227-.694 4.524-2.082 1.297-1.388 1.946-3.081 1.946-5.08 0-1.998-.649-3.692-1.946-5.08s-2.805-2.082-4.524-2.082c-1.719 0-3.226.694-4.524 2.082-1.297 1.388-1.946 3.082-1.946 5.08z"/><path id="rbswb" d="M84 110.352V148H71.236v-36.318H54.764V148H42v-48h33.266z"/><path id="rbswc" d="M84 111h-9v-11z"/></defs><g><g transform="translate(-40 -100)"><g><use fill="#383838" xlink:href="#rbswa"/></g><g><use fill="#383838" xlink:href="#rbswb"/></g><g><use fill="#73ae33" xlink:href="#rbswc"/></g></g></g></svg>