<svg xmlns="http://www.w3.org/2000/svg" xmlns:xlink="http://www.w3.org/1999/xlink" width="81" height="16" viewBox="0 0 81 16"><defs><path id="ccfsa" d="M196.613 1937.58l1.297 12.027c.057.505.155.945.293 1.32.139.376.391.627.758.753.201.064.416.108.644.133.227.026.432.038.615.038.1 0 .151.036.151.105 0 .113-.136.17-.407.17-.12 0-.6-.013-1.444-.037a51.933 51.933 0 0 1-1.794-.077c-.36-.03-.54-.098-.54-.199 0-.069.044-.114.133-.133.057-.012.085-.252.085-.719l-.937-10.105h-.057l-4.752 10.18c-.209.455-.348.744-.418.867-.069.124-.141.186-.217.186-.07 0-.131-.043-.185-.129-.053-.085-.194-.34-.421-.762l-.658-1.316c-.256-.512-.451-.904-.587-1.18-.135-.275-.33-.67-.582-1.188a25.676 25.676 0 0 0-.435-.871 74.17 74.17 0 0 1-.83-1.772c-.425-.928-.796-1.737-1.111-2.428a87.388 87.388 0 0 1-.625-1.388h-.076l-.776 9.091c-.013.209-.02.547-.02 1.014 0 .132.05.259.147.378a.58.58 0 0 0 .356.218c.277.063.523.095.738.095.107 0 .161.036.161.105 0 .113-.117.17-.35.17l-.606-.019-.592-.018-.37-.015a5.385 5.385 0 0 0-.487 0l-.35.015a33.65 33.65 0 0 0-.53.023c-.196.009-.363.014-.502.014-.222 0-.332-.057-.332-.17 0-.07.067-.105.2-.105.194 0 .387-.018.577-.057.284-.05.47-.202.558-.454.088-.253.162-.644.218-1.174l1.402-12.757c.038-.246.107-.369.208-.369.114 0 .211.098.293.293l5.936 12.331 5.7-12.312c.088-.208.183-.312.283-.312.12 0 .2.18.238.54z"/><path id="ccfsb" d="M205.328 1945.663h3.713c.057 0 .085-.044.085-.133l-1.851-5.31c-.032-.145-.076-.218-.133-.218-.05 0-.105.073-.162.218l-1.709 5.31c0 .09.019.133.057.133zm-2.71 4.314l4.396-12.16c.183-.518.328-.777.436-.777.063 0 .126.055.189.165.063.11.141.296.237.555l.966 2.537a2484.09 2484.09 0 0 0 2.378 6.231c.474 1.238.865 2.252 1.175 3.041.31.77.597 1.306.862 1.605.265.3.533.487.805.564.235.075.493.113.777.113.126 0 .19.041.19.123 0 .101-.13.152-.389.152-1.136 0-2.15-.013-3.04-.037a8.241 8.241 0 0 1-.441-.038c-.098-.014-.148-.044-.148-.095 0-.076.048-.123.142-.142.101-.026.152-.12.152-.285a.64.64 0 0 0-.038-.236l-1.8-4.83c-.044-.076-.104-.114-.18-.114h-4.168c-.094 0-.16.051-.2.152l-1.164 3.476c-.177.498-.266.936-.266 1.316 0 .176.078.313.233.411a.93.93 0 0 0 .507.147h.19c.132 0 .198.041.198.123 0 .102-.098.152-.293.152-.12 0-.267-.004-.44-.013-.175-.01-.334-.018-.48-.024l-.331-.015a6.229 6.229 0 0 0-.554 0l-.432.015c-.202.006-.44.013-.714.024-.275.009-.526.013-.753.013-.247 0-.37-.05-.37-.152 0-.082.057-.123.17-.123.165 0 .354-.012.57-.037a1.4 1.4 0 0 0 .979-.55c.243-.315.46-.745.648-1.287z"/><path id="ccfsc" d="M217.805 1946.439v-3.447c0-1.616-.002-2.654-.005-3.116a14.1 14.1 0 0 0-.043-1.117c-.019-.354-.085-.612-.198-.772-.114-.162-.326-.274-.635-.337a2.883 2.883 0 0 0-.653-.057c-.107 0-.161-.038-.161-.113 0-.12.105-.18.313-.18.202 0 .5.006.892.019a107.878 107.878 0 0 1 1.243.047 72.051 72.051 0 0 1 1.888-.066c.208 0 .313.06.313.18 0 .075-.053.113-.16.113-.083 0-.245.02-.488.062-.244.041-.416.144-.516.308-.102.164-.168.43-.2.796-.018.322-.03.704-.032 1.145a519.49 519.49 0 0 0-.005 3.088v1.174h.085c.152-.17.382-.415.691-.733l1.269-1.307 1.543-1.592c.492-.508.836-.872 1.032-1.093.347-.373.607-.666.781-.881.173-.215.26-.395.26-.54 0-.209-.082-.344-.246-.407-.12-.05-.18-.101-.18-.152 0-.107.08-.16.237-.16.083 0 .177.003.284.009l.587.033c.285.015.48.023.588.023-.026 0 .06-.004.255-.014a64.321 64.321 0 0 1 1.6-.052c.196 0 .294.054.294.16 0 .09-.067.133-.2.133-.321 0-.681.092-1.079.275-.164.07-.348.173-.553.308a4.47 4.47 0 0 0-.47.346c-.107.095-.276.254-.506.478-.23.225-.421.41-.573.554l-.847.838a228.257 228.257 0 0 0-2.637 2.638 21.54 21.54 0 0 0-.776.814l.956 1.009c.63.666 1.26 1.324 1.889 1.974.628.65 1.1 1.136 1.415 1.458.316.324.672.683 1.07 1.08.607.563 1.047.967 1.321 1.213.275.246.529.447.762.6.234.156.502.296.804.422.405.164.805.246 1.203.246.17 0 .256.041.256.123 0 .102-.143.152-.427.152h-.993c-.606 0-1.05-.012-1.335-.037-.455-.044-.832-.152-1.132-.322-.3-.17-.705-.465-1.216-.881-.278-.22-.85-.791-1.714-1.71a188.626 188.626 0 0 1-2.504-2.712c-.804-.89-1.368-1.538-1.69-1.942h-.104v1.923c0 .58 0 1.157.005 1.728.003.572.014 1.085.033 1.539.018.454.04.783.066.985.031.328.096.581.194.757.098.177.283.285.554.322.366.051.618.076.757.076.108 0 .161.04.161.123 0 .101-.104.152-.312.152-.234 0-.413-.003-.537-.01-.123-.006-.69-.022-1.703-.047a7.24 7.24 0 0 0-.26.005l-.413.015c-.19.005-.397.013-.622.023-.224.01-.413.014-.565.014-.208 0-.313-.05-.313-.152 0-.082.051-.123.152-.123.152 0 .348-.025.587-.076a.489.489 0 0 0 .379-.298c.076-.168.136-.427.18-.781.038-.29.064-.772.08-1.444.016-.674.024-1.61.024-2.81z"/><path id="ccfsd" d="M232.394 1946.44v-3.446c0-1.616 0-2.655-.005-3.116-.002-.46-.016-.833-.042-1.117-.019-.354-.085-.612-.198-.773-.114-.161-.325-.273-.635-.336a2.887 2.887 0 0 0-.654-.057c-.107 0-.16-.038-.16-.113 0-.12.104-.18.313-.18.201 0 .502.006.903.019a143.427 143.427 0 0 1 1.292.047c2.658 0 4.138-.006 4.44-.019.335-.019.613-.054.834-.104.02-.006.061-.024.128-.052a.454.454 0 0 1 .137-.043c.05 0 .076.06.076.18 0 .063-.02.185-.061.364a4.35 4.35 0 0 0-.09.564c-.013.17-.03.41-.048.716-.02.306-.035.5-.047.582-.032.145-.076.217-.133.217-.108 0-.16-.084-.16-.255 0-.29-.039-.528-.114-.715a.86.86 0 0 0-.38-.432c-.176-.1-.51-.176-1.003-.227-.107-.019-.461-.034-1.06-.047-.6-.012-1.13-.019-1.59-.019-.076 0-.114.066-.114.199v5.408c0 .133.038.2.114.2 1.754 0 2.78-.013 3.076-.039.474-.038.78-.129.919-.274.088-.102.15-.169.185-.204.034-.035.067-.053.099-.053.07 0 .104.054.104.162a13.579 13.579 0 0 0-.236 2.349c0 .24-.045.36-.133.36-.095 0-.142-.058-.142-.171 0-.259-.026-.474-.076-.644-.108-.404-.442-.636-1.004-.692-.65-.07-1.574-.104-2.773-.104-.088 0-.133.047-.133.142V1949.793c.02.473.084.821.195 1.041.11.222.315.372.614.45.3.08.779.119 1.435.119.397 0 .757-.015 1.079-.043.322-.028.583-.084.786-.166.252-.12.445-.29.578-.51.132-.222.23-.524.293-.91.031-.19.089-.284.17-.284.083 0 .123.095.123.284 0 .12-.03.41-.09.872-.06.46-.114.804-.165 1.03-.045.166-.098.283-.161.352a.434.434 0 0 1-.275.128c-.12.016-.325.024-.615.024-1.174 0-2.265-.02-3.275-.057l-1.506-.058a42.048 42.048 0 0 0-.776.02c-.518.025-.893.037-1.127.037-.209 0-.313-.05-.313-.151 0-.083.05-.124.152-.124.151 0 .347-.024.587-.075a.49.49 0 0 0 .379-.299c.076-.167.136-.427.18-.78.038-.291.064-.773.08-1.444.016-.673.023-1.609.023-2.808z"/><path id="ccfse" d="M245.847 1942.992v3.447c0 1.2.007 2.135.023 2.803.016.67.04 1.153.071 1.45.031.327.1.582.203.761.105.18.29.286.555.318.353.05.643.075.87.075.102 0 .152.041.152.123 0 .102-.104.152-.312.152-.253 0-.468-.002-.644-.009a87.018 87.018 0 0 0-1.018-.028c-.502-.013-.74-.02-.715-.02-.076 0-.158.002-.246.005l-.43.015c-.2.005-.416.013-.65.023-.233.01-.425.014-.576.014-.208 0-.312-.05-.312-.152 0-.082.05-.123.15-.123.152 0 .347-.025.587-.076a.489.489 0 0 0 .379-.298c.076-.168.136-.427.18-.781.038-.29.065-.772.08-1.444.016-.673.024-1.61.024-2.808v-3.447c0-1.616-.002-2.655-.004-3.116-.004-.46-.018-.833-.043-1.117-.038-.632-.256-.995-.654-1.09a2.398 2.398 0 0 0-.605-.076c-.101 0-.152-.038-.152-.113 0-.12.105-.18.313-.18.132 0 .39.006.771.019a88.92 88.92 0 0 1 1.188.047l.28-.014a71.827 71.827 0 0 1 1.614-.052c.208 0 .312.06.312.18 0 .075-.05.113-.152.113-.087 0-.253.02-.497.062-.242.04-.416.145-.52.312-.104.168-.166.431-.185.792-.019.322-.03.704-.033 1.145-.003.443-.004 1.472-.004 3.088z"/><path id="ccfsf" d="M256.87 1938.167v8.277c0 1.2.008 2.134.023 2.803.016.67.04 1.153.072 1.45.03.327.1.581.204.761.103.18.288.286.553.317.366.051.657.076.87.076.102 0 .152.041.152.123 0 .102-.1.152-.303.152-.258 0-.476-.002-.653-.009a87.26 87.26 0 0 0-1.017-.028 80.93 80.93 0 0 1-.715-.02c-.076 0-.156.002-.241.005l-.43.015c-.203.005-.42.013-.655.023a15.4 15.4 0 0 1-.577.014c-.208 0-.313-.05-.313-.152 0-.082.054-.123.162-.123.158 0 .35-.025.578-.076a.488.488 0 0 0 .378-.298c.076-.168.136-.427.18-.781.038-.29.065-.772.08-1.444.017-.673.024-1.61.024-2.809v-8.276l-2.869.038c-.606.012-1.048.061-1.326.146a1.194 1.194 0 0 0-.652.47c-.159.24-.269.448-.332.624-.044.127-.11.19-.198.19-.064 0-.095-.057-.095-.17 0-.101.065-.44.194-1.014.13-.575.207-.915.233-1.023.068-.259.134-.388.198-.388.012 0 .105.035.278.104.174.07.365.11.573.123.588.07 1.099.104 1.534.104h7.271c.341 0 .8-.034 1.373-.104.328-.063.508-.094.54-.094.07 0 .104.085.104.255 0 .12-.008.402-.024.847-.015.446-.027.772-.032.981l-.01.322c0 .17-.045.256-.133.256-.088 0-.139-.11-.151-.332l-.02-.237c-.044-.327-.238-.582-.582-.763-.344-.18-.945-.279-1.803-.297l-2.443-.038z"/></defs><g><g opacity=".7" transform="translate(-181 -1937)"><g opacity=".7"><use xlink:href="#ccfsa"/></g><g opacity=".7"><use xlink:href="#ccfsb"/></g><g opacity=".7"><use xlink:href="#ccfsc"/></g><g opacity=".7"><use xlink:href="#ccfsd"/></g><g opacity=".7"><use xlink:href="#ccfse"/></g><g opacity=".7"><use xlink:href="#ccfsf"/></g></g></g></svg>