<svg xmlns="http://www.w3.org/2000/svg" xmlns:xlink="http://www.w3.org/1999/xlink" width="49" height="52" viewBox="0 0 49 52"><defs><path id="pzxla" d="M61 1810v-20h21v20zm8.649-3.828l9.98-9.91-4.017-4.122-10.334 9.953-1.478 5.261z"/><path id="pzxlb" d="M77 1795v-11h11v11zm6.81-2.658l1.817-2.08-4.017-4.122-2.17 2.124z"/><path id="pzxlc" d="M56.618 1810H46a6 6 0 0 1-6-6v-38a6 6 0 0 1 6-6h28a6 6 0 0 1 6 6v15.258"/><path id="pzxld" d="M48 1774a1 1 0 0 1 1-1h22a1 1 0 0 1 0 2H49a1 1 0 0 1-1-1z"/><path id="pzxle" d="M48 1781a1 1 0 0 1 1-1h22a1 1 0 0 1 0 2H49a1 1 0 0 1-1-1z"/><path id="pzxlf" d="M48 1788a1 1 0 0 1 1-1h22a1 1 0 0 1 0 2H49a1 1 0 0 1-1-1z"/><path id="pzxlg" d="M63.8 1807.354l1.478-5.26 10.334-9.954 4.017 4.123-9.98 9.909z"/><path id="pzxli" d="M79.44 1788.264l2.17-2.124 4.017 4.123-1.817 2.08z"/><clipPath id="pzxlh"><use fill="#fff" xlink:href="#pzxla"/></clipPath><clipPath id="pzxlj"><use fill="#fff" xlink:href="#pzxlb"/></clipPath></defs><g><g transform="translate(-39 -1759)"><g><use fill="#fff" fill-opacity="0" stroke="#73ae33" stroke-linecap="round" stroke-linejoin="round" stroke-miterlimit="50" stroke-width="2" xlink:href="#pzxlc"/></g><g><use fill="#383838" xlink:href="#pzxld"/></g><g><use fill="#383838" xlink:href="#pzxle"/></g><g><use fill="#383838" xlink:href="#pzxlf"/></g><g><use fill="#fff" fill-opacity="0" stroke="#73ae33" stroke-linecap="square" stroke-linejoin="round" stroke-miterlimit="50" stroke-width="4" clip-path="url(&quot;#pzxlh&quot;)" xlink:href="#pzxlg"/></g><g><use fill="#fff" fill-opacity="0" stroke="#73ae33" stroke-linecap="square" stroke-linejoin="round" stroke-miterlimit="50" stroke-width="4" clip-path="url(&quot;#pzxlj&quot;)" xlink:href="#pzxli"/></g></g></g></svg>