<svg xmlns="http://www.w3.org/2000/svg" xmlns:xlink="http://www.w3.org/1999/xlink" width="62" height="47" viewBox="0 0 62 47"><defs><path id="3rona" d="M856.944 951.591c0 6.875-1.74 12.433-5.219 16.672-3.48 4.24-7.5 6.36-12.063 6.36-4.562 0-8.583-2.12-12.062-6.36-3.48-4.24-5.219-9.797-5.219-16.672s1.74-12.432 5.219-16.672c3.48-4.24 7.5-6.359 12.063-6.359 4.562 0 8.583 2.12 12.062 6.36 3.48 4.239 5.219 9.796 5.219 16.671zm-31.375 0c0 6.063 1.411 10.885 4.234 14.468 2.823 3.584 6.11 5.375 9.86 5.375 3.75 0 7.03-1.791 9.843-5.374 2.813-3.584 4.219-8.406 4.219-14.469 0-6.062-1.406-10.885-4.219-14.468-2.812-3.583-6.093-5.375-9.843-5.375s-7.037 1.792-9.86 5.375c-2.823 3.583-4.234 8.406-4.234 14.468zm-21.098-22.406h2.563v44.812h-3.188v-39.03c-.208.25-.505.567-.89.952-.386.386-1.328.907-2.828 1.563-1.5.656-3.146.984-4.938.984v-2.562c1.792 0 3.469-.563 5.031-1.688 1.563-1.125 2.667-2.24 3.313-3.343z"/><linearGradient id="3ronb" x1="815.89" x2="826.07" y1="974.63" y2="936.89" gradientUnits="userSpaceOnUse"><stop offset="0" stop-color="#383838"/><stop offset=".5" stop-color="#383838"/><stop offset=".51" stop-color="#6ea533"/><stop offset="1" stop-color="#73ae33"/></linearGradient></defs><g><g transform="translate(-795 -928)"><use fill="#73ae33" xlink:href="#3rona"/><use fill="url(#3ronb)" xlink:href="#3rona"/></g></g></svg>