<svg xmlns="http://www.w3.org/2000/svg" xmlns:xlink="http://www.w3.org/1999/xlink" width="51" height="51" viewBox="0 0 51 51"><defs><path id="rsi3a" d="M66.548 1633.841v-4.309a1.051 1.051 0 0 0-2.102 0v4.31c-11.525-.55-20.744-9.77-21.294-21.294h4.31a1.051 1.051 0 0 0 0-2.102h-4.31c.55-11.525 9.769-20.744 21.294-21.294v4.31a1.051 1.051 0 0 0 2.102 0v-4.31c11.524.55 20.743 9.769 21.293 21.294h-4.309a1.051 1.051 0 0 0 0 2.102H87.852c-.55 11.528-9.776 20.748-21.304 21.293zm-1.051-47.511c-13.9 0-25.167 11.268-25.167 25.167 0 13.899 11.268 25.166 25.167 25.166 13.899 0 25.166-11.267 25.166-25.166-.017-13.892-11.275-25.15-25.166-25.167z"/><path id="rsi3b" d="M75.71 1620.262l-9.682-9.926v-10.314c0-.564-.454-1.022-1.014-1.022s-1.014.458-1.014 1.022v10.733c.001.268.107.525.294.716l9.967 10.222c.392.403 1.034.41 1.434.015.4-.395.407-1.043.015-1.446z"/></defs><g><g transform="translate(-40 -1586)"><g><use fill="#73ae33" xlink:href="#rsi3a"/></g><g><use fill="#383838" xlink:href="#rsi3b"/></g></g></g></svg>